# xmcd
#
# Track frame offsets:
#   150
#   11331
#   21302
#   34038
#   45824
#   58067
#   68130
#   78424
#   89193
#   100381
#   112942
#   124956
#   137035
#   146943
#   158349
#   166605
#
# Disc length: 2324 seconds
#
# Revision: 0
# Processed by: cddbd v1.5.2PL0 Copyright (c) Steve Scherf et al.
# Submitted via: uFREEDB ActiveX Control 1.5
#
DISCID=cd091210
DTITLE=JOHNNY CASH - THE GREATEST SONGS
DYEAR=1900
DGENRE=Country
TTITLE0=CRY CRY CRY
TTITLE1=HEY PORTER
TTITLE2=FOLSON PRISION BLUES
TTITLE3=SO DOGGONE LONESOME
TTITLE4=I WALK THE LINE
TTITLE5=GET RHYTHM
TTITLE6=THERE YOU GO
TTITLE7=TRAIN OF LOVE
TTITLE8=DON´T MAKE ME GO
TTITLE9=NEXT IN LINE
TTITLE10=HOME OF THE BLUES
TTITLE11=GIVE MY LOVE TO ROSE
TTITLE12=BALLAD OF A TEENAGE QUEEN
TTITLE13=BIG RIVER
TTITLE14=GUESS THINGS HAPPEN THAT WAY
TTITLE15=COME IN STRANGER
EXTD=
EXTT0=
EXTT1=
EXTT2=
EXTT3=
EXTT4=
EXTT5=
EXTT6=
EXTT7=
EXTT8=
EXTT9=
EXTT10=
EXTT11=
EXTT12=
EXTT13=
EXTT14=
EXTT15=
PLAYORDER=
